<svg width="35" height="35" viewBox="0 0 35 35" fill="none" xmlns="http://www.w3.org/2000/svg">
<path d="M20.8496 17.5C20.8496 19.35 19.35 20.8496 17.5 20.8496C15.65 20.8496 14.1504 19.35 14.1504 17.5C14.1504 15.65 15.65 14.1504 17.5 14.1504C19.35 14.1504 20.8496 15.65 20.8496 17.5Z" fill="#A8B56B"/>
<path d="M25.3335 11.5736C25.1725 11.1373 24.9156 10.7424 24.5818 10.4182C24.2577 10.0844 23.863 9.82753 23.4264 9.66651C23.0723 9.52899 22.5404 9.3653 21.5607 9.32071C20.5008 9.27238 20.1831 9.26196 17.5 9.26196C14.8166 9.26196 14.4988 9.27211 13.4393 9.32044C12.4595 9.3653 11.9273 9.52899 11.5735 9.66651C11.1369 9.82753 10.742 10.0844 10.4181 10.4182C10.0843 10.7424 9.82743 11.137 9.66615 11.5736C9.52863 11.9277 9.36494 12.4599 9.32034 13.4396C9.27201 14.4992 9.2616 14.817 9.2616 17.5003C9.2616 20.1834 9.27201 20.5012 9.32034 21.561C9.36494 22.5408 9.52863 23.0727 9.66615 23.4268C9.82743 23.8634 10.084 24.258 10.4178 24.5822C10.742 24.916 11.1367 25.1729 11.5733 25.3339C11.9273 25.4717 12.4595 25.6354 13.4393 25.68C14.4988 25.7283 14.8163 25.7384 17.4997 25.7384C20.1833 25.7384 20.5011 25.7283 21.5604 25.68C22.5401 25.6354 23.0723 25.4717 23.4264 25.3339C24.3028 24.9958 24.9955 24.3032 25.3335 23.4268C25.471 23.0727 25.6347 22.5408 25.6796 21.561C25.7279 20.5012 25.7381 20.1834 25.7381 17.5003C25.7381 14.817 25.7279 14.4992 25.6796 13.4396C25.635 12.4599 25.4713 11.9277 25.3335 11.5736ZM17.5 22.6601C14.65 22.6601 12.3396 20.3501 12.3396 17.5001C12.3396 14.6501 14.65 12.34 17.5 12.34C20.3497 12.34 22.66 14.6501 22.66 17.5001C22.66 20.3501 20.3497 22.6601 17.5 22.6601ZM22.864 13.3419C22.1981 13.3419 21.6581 12.802 21.6581 12.136C21.6581 11.47 22.1981 10.9301 22.864 10.9301C23.53 10.9301 24.0699 11.47 24.0699 12.136C24.0697 12.802 23.53 13.3419 22.864 13.3419Z" fill="#A8B56B"/>
<path d="M17.5 0C7.83649 0 0 7.83649 0 17.5C0 27.1635 7.83649 35 17.5 35C27.1635 35 35 27.1635 35 17.5C35 7.83649 27.1635 0 17.5 0ZM27.4882 21.643C27.4396 22.7127 27.2695 23.443 27.0212 24.0823C26.4991 25.4321 25.4321 26.4991 24.0823 27.0212C23.4433 27.2695 22.7127 27.4393 21.6432 27.4882C20.5716 27.5371 20.2293 27.5488 17.5003 27.5488C14.771 27.5488 14.4289 27.5371 13.357 27.4882C12.2876 27.4393 11.557 27.2695 10.918 27.0212C10.2472 26.7688 9.64001 26.3734 9.13799 25.862C8.6269 25.3603 8.23143 24.7528 7.97909 24.0823C7.73075 23.4433 7.56065 22.7127 7.51205 21.6432C7.46265 20.5714 7.45117 20.229 7.45117 17.5C7.45117 14.771 7.46265 14.4286 7.51179 13.357C7.56039 12.2873 7.73022 11.557 7.97855 10.9177C8.2309 10.2472 8.62663 9.63974 9.13799 9.13799C9.63974 8.62663 10.2472 8.23116 10.9177 7.97882C11.557 7.73048 12.2873 7.56065 13.357 7.51179C14.4286 7.46292 14.771 7.45117 17.5 7.45117C20.229 7.45117 20.5714 7.46292 21.643 7.51205C22.7127 7.56065 23.443 7.73048 24.0823 7.97855C24.7528 8.2309 25.3603 8.62663 25.8623 9.13799C26.3734 9.64001 26.7691 10.2472 27.0212 10.9177C27.2698 11.557 27.4396 12.2873 27.4885 13.357C27.5373 14.4286 27.5488 14.771 27.5488 17.5C27.5488 20.229 27.5373 20.5714 27.4882 21.643Z" fill="#A8B56B"/>
</svg>
