<svg width="28" height="27" viewBox="0 0 28 27" fill="none" xmlns="http://www.w3.org/2000/svg">
<path d="M22.8675 22.8328L21.232 21.4151C26.5702 16.7879 26.5702 9.25752 21.232 4.63027L22.8665 3.21258C29.1062 8.6229 29.1062 17.4225 22.8675 22.8328ZM20.0411 5.66077L18.4056 7.07672C22.1874 10.3549 22.1874 15.6888 18.4056 18.9669L20.0431 20.3829C24.7224 16.326 24.7224 9.71851 20.0411 5.66077ZM17.1246 8.1897L15.4891 9.60826C17.6624 11.4904 17.6624 14.5576 15.4891 16.4398L17.1246 17.8574C20.1984 15.1913 20.1984 10.8532 17.1246 8.1897ZM1.06168 7.33109C0.889416 9.17592 0.790262 11.0233 0.752203 12.8725H0.742188C0.743189 12.9229 0.747195 12.9715 0.747195 13.0218C0.747195 13.0731 0.743189 13.1217 0.742188 13.1703H0.753205C0.791264 15.0195 0.890417 16.8686 1.06268 18.7126C1.50838 23.5395 5.88416 26.7447 10.1748 25.913C10.3631 25.88 10.5594 25.8783 10.7367 25.8158C11.7813 25.439 12.6467 24.7384 13.6111 24.221C14.8411 23.5525 12.1899 17.8835 10.5474 18.6153C9.94046 18.8897 8.26385 19.9636 7.58981 20.0443C6.98787 20.1172 6.51714 19.4271 6.45705 18.7898C6.29981 17.1074 6.44203 14.9578 6.45405 13.1712H6.45705C6.45705 13.1234 6.45605 13.0722 6.45605 13.0227C6.45605 12.9732 6.45705 12.9211 6.45705 12.8742H6.45305C6.44103 11.0876 6.29881 8.93804 6.45605 7.25556C6.51614 6.61747 6.98687 5.92642 7.58881 6.00108C8.26285 6.08182 9.93945 7.15573 10.5464 7.43006C12.1889 8.16191 14.8391 2.49114 13.6101 1.8244C12.6456 1.30611 11.7803 0.604645 10.7357 0.229603C10.5584 0.16536 10.3611 0.164492 10.1738 0.131502C5.88316 -0.701056 1.50838 2.50503 1.06168 7.33109Z" fill="#C10000"/>
</svg>
