<svg width="70" height="91" viewBox="0 0 70 91" fill="none" xmlns="http://www.w3.org/2000/svg">
<path d="M48.9934 36.0451C55.0267 30.5444 63.1858 23.1049 63.9295 5.33203H69.3164V0H0V5.33203H5.38695C6.13059 23.1049 14.2897 30.5444 20.323 36.0451C24.3702 39.735 26.6602 41.9935 26.6602 45.5C26.6602 49.0065 24.3702 51.265 20.323 54.9549C14.2897 60.4556 6.13059 67.8951 5.38695 85.668H0V91H69.3164V85.668H63.9295C63.1858 67.8951 55.0267 60.4556 48.9934 54.9549C44.9462 51.265 42.6562 49.0065 42.6562 45.5C42.6562 41.9935 44.9462 39.735 48.9934 36.0451ZM31.9922 65.4841C31.1687 65.654 30.3553 65.9012 29.5613 66.2297L13.2316 72.987C15.8983 66.2064 20.1935 62.2886 23.9154 58.8953C28.0691 55.1083 31.9922 51.5314 31.9922 45.5V65.4841ZM45.401 58.8953C49.1229 62.2886 53.4179 66.2064 56.0848 72.9868L39.7551 66.2295C38.9612 65.9011 38.1477 65.6538 37.3242 65.4839V45.5C37.3242 51.5314 41.2473 55.1083 45.401 58.8953ZM13.1379 17.7734C11.8488 14.4144 10.9586 10.3587 10.7256 5.33203H58.5907C58.3577 10.3587 57.4676 14.4144 56.1783 17.7734H13.1379Z" fill="#910002"/>
</svg>
