<svg  xmlns="http://www.w3.org/2000/svg">
    <symbol id="email-icon" viewBox="0 0 26 26">
        <g>
            <path d="M23.5625 3.25H2.43752C1.09339 3.25 0 4.34339 0 5.68752V20.3125C0 21.6566 1.09339 22.75 2.43752 22.75H23.5625C24.9066 22.75 26 21.6566 26 20.3125V5.68752C26 4.34339 24.9066 3.25 23.5625 3.25ZM23.5625 4.87499C23.6729 4.87499 23.7779 4.8979 23.8739 4.9379L13 14.3624L2.12604 4.9379C2.22205 4.89795 2.32707 4.87499 2.43746 4.87499H23.5625ZM23.5625 21.125H2.43752C1.98922 21.125 1.62499 20.7608 1.62499 20.3125V6.65472L12.4676 16.0516C12.6207 16.1841 12.8104 16.25 13 16.25C13.1896 16.25 13.3793 16.1842 13.5324 16.0516L24.375 6.65472V20.3125C24.375 20.7608 24.0108 21.125 23.5625 21.125Z" fill="#C10000"/>
        </g>
    </symbol>
    <symbol id="phone-icon" viewBox="0 0 28 27">
        <path d="M22.8675 22.8328L21.232 21.4151C26.5702 16.7879 26.5702 9.25752 21.232 4.63027L22.8665 3.21258C29.1062 8.6229 29.1062 17.4225 22.8675 22.8328ZM20.0411 5.66077L18.4056 7.07672C22.1874 10.3549 22.1874 15.6888 18.4056 18.9669L20.0431 20.3829C24.7224 16.326 24.7224 9.71851 20.0411 5.66077ZM17.1246 8.1897L15.4891 9.60826C17.6624 11.4904 17.6624 14.5576 15.4891 16.4398L17.1246 17.8574C20.1984 15.1913 20.1984 10.8532 17.1246 8.1897ZM1.06168 7.33109C0.889416 9.17592 0.790262 11.0233 0.752203 12.8725H0.742188C0.743189 12.9229 0.747195 12.9715 0.747195 13.0218C0.747195 13.0731 0.743189 13.1217 0.742188 13.1703H0.753205C0.791264 15.0195 0.890417 16.8686 1.06268 18.7126C1.50838 23.5395 5.88416 26.7447 10.1748 25.913C10.3631 25.88 10.5594 25.8783 10.7367 25.8158C11.7813 25.439 12.6467 24.7384 13.6111 24.221C14.8411 23.5525 12.1899 17.8835 10.5474 18.6153C9.94046 18.8897 8.26385 19.9636 7.58981 20.0443C6.98787 20.1172 6.51714 19.4271 6.45705 18.7898C6.29981 17.1074 6.44203 14.9578 6.45405 13.1712H6.45705C6.45705 13.1234 6.45605 13.0722 6.45605 13.0227C6.45605 12.9732 6.45705 12.9211 6.45705 12.8742H6.45305C6.44103 11.0876 6.29881 8.93804 6.45605 7.25556C6.51614 6.61747 6.98687 5.92642 7.58881 6.00108C8.26285 6.08182 9.93945 7.15573 10.5464 7.43006C12.1889 8.16191 14.8391 2.49114 13.6101 1.8244C12.6456 1.30611 11.7803 0.604645 10.7357 0.229603C10.5584 0.16536 10.3611 0.164492 10.1738 0.131502C5.88316 -0.701056 1.50838 2.50503 1.06168 7.33109Z" fill="#C10000"/>
    </symbol>

    <symbol id="sand-glass-icon" viewBox="0 0 70 91">
        <path d="M48.9934 36.0451C55.0267 30.5444 63.1858 23.1049 63.9295 5.33203H69.3164V0H0V5.33203H5.38695C6.13059 23.1049 14.2897 30.5444 20.323 36.0451C24.3702 39.735 26.6602 41.9935 26.6602 45.5C26.6602 49.0065 24.3702 51.265 20.323 54.9549C14.2897 60.4556 6.13059 67.8951 5.38695 85.668H0V91H69.3164V85.668H63.9295C63.1858 67.8951 55.0267 60.4556 48.9934 54.9549C44.9462 51.265 42.6562 49.0065 42.6562 45.5C42.6562 41.9935 44.9462 39.735 48.9934 36.0451ZM31.9922 65.4841C31.1687 65.654 30.3553 65.9012 29.5613 66.2297L13.2316 72.987C15.8983 66.2064 20.1935 62.2886 23.9154 58.8953C28.0691 55.1083 31.9922 51.5314 31.9922 45.5V65.4841ZM45.401 58.8953C49.1229 62.2886 53.4179 66.2064 56.0848 72.9868L39.7551 66.2295C38.9612 65.9011 38.1477 65.6538 37.3242 65.4839V45.5C37.3242 51.5314 41.2473 55.1083 45.401 58.8953ZM13.1379 17.7734C11.8488 14.4144 10.9586 10.3587 10.7256 5.33203H58.5907C58.3577 10.3587 57.4676 14.4144 56.1783 17.7734H13.1379Z" fill="#910002"/>
    </symbol>
        <symbol id="about-me-decor" viewBox="0 0 774 776">
            <path d="M601.69 540.689L673.927 512.558C679.374 510.437 684.65 507.901 689.709 504.971L733.908 479.376C754.631 467.375 764.175 442.543 756.823 419.752C754.906 413.811 751.912 408.272 747.989 403.415L714.936 362.481L646.348 277.54L644.392 275.119C600.656 220.955 546.494 176.121 485.114 143.271L423.382 110.234C410.395 103.284 396.286 98.6733 381.7 96.6139C357.484 93.1946 332.796 96.9239 310.669 107.343L284.518 119.659C251.906 135.016 223.517 158.073 201.797 186.842L189.358 203.319C172.171 226.084 158.252 251.141 148.005 277.761L143.238 290.145L121.246 336.842C115.714 348.59 111.23 360.804 107.848 373.342L101.51 396.839C97.621 411.255 96.8148 426.329 99.1437 441.078C102.047 459.465 109.731 476.767 121.426 491.25L132.816 505.355C160.279 539.366 199.14 562.267 242.198 569.815L262.164 573.315C283.386 577.035 305.019 577.815 326.454 575.634L356.249 572.601C377.614 570.427 399.107 569.797 420.562 570.716C482.366 573.362 544.046 563.137 601.69 540.689Z" fill="#910002"/>
    </symbol>
</svg> 