<svg  xmlns="http://www.w3.org/2000/svg">
    <symbol id="email-icon" viewBox="0 0 26 26">
            <path d="M23.5625 3.25H2.43752C1.09339 3.25 0 4.34339 0 5.68752V20.3125C0 21.6566 1.09339 22.75 2.43752 22.75H23.5625C24.9066 22.75 26 21.6566 26 20.3125V5.68752C26 4.34339 24.9066 3.25 23.5625 3.25ZM23.5625 4.87499C23.6729 4.87499 23.7779 4.8979 23.8739 4.9379L13 14.3624L2.12604 4.9379C2.22205 4.89795 2.32707 4.87499 2.43746 4.87499H23.5625ZM23.5625 21.125H2.43752C1.98922 21.125 1.62499 20.7608 1.62499 20.3125V6.65472L12.4676 16.0516C12.6207 16.1841 12.8104 16.25 13 16.25C13.1896 16.25 13.3793 16.1842 13.5324 16.0516L24.375 6.65472V20.3125C24.375 20.7608 24.0108 21.125 23.5625 21.125Z" fill="#C10000"/>
    </symbol>
    <symbol id="phone-icon" viewBox="0 0 28 27">
        <path d="M22.8675 22.8328L21.232 21.4151C26.5702 16.7879 26.5702 9.25752 21.232 4.63027L22.8665 3.21258C29.1062 8.6229 29.1062 17.4225 22.8675 22.8328ZM20.0411 5.66077L18.4056 7.07672C22.1874 10.3549 22.1874 15.6888 18.4056 18.9669L20.0431 20.3829C24.7224 16.326 24.7224 9.71851 20.0411 5.66077ZM17.1246 8.1897L15.4891 9.60826C17.6624 11.4904 17.6624 14.5576 15.4891 16.4398L17.1246 17.8574C20.1984 15.1913 20.1984 10.8532 17.1246 8.1897ZM1.06168 7.33109C0.889416 9.17592 0.790262 11.0233 0.752203 12.8725H0.742188C0.743189 12.9229 0.747195 12.9715 0.747195 13.0218C0.747195 13.0731 0.743189 13.1217 0.742188 13.1703H0.753205C0.791264 15.0195 0.890417 16.8686 1.06268 18.7126C1.50838 23.5395 5.88416 26.7447 10.1748 25.913C10.3631 25.88 10.5594 25.8783 10.7367 25.8158C11.7813 25.439 12.6467 24.7384 13.6111 24.221C14.8411 23.5525 12.1899 17.8835 10.5474 18.6153C9.94046 18.8897 8.26385 19.9636 7.58981 20.0443C6.98787 20.1172 6.51714 19.4271 6.45705 18.7898C6.29981 17.1074 6.44203 14.9578 6.45405 13.1712H6.45705C6.45705 13.1234 6.45605 13.0722 6.45605 13.0227C6.45605 12.9732 6.45705 12.9211 6.45705 12.8742H6.45305C6.44103 11.0876 6.29881 8.93804 6.45605 7.25556C6.51614 6.61747 6.98687 5.92642 7.58881 6.00108C8.26285 6.08182 9.93945 7.15573 10.5464 7.43006C12.1889 8.16191 14.8391 2.49114 13.6101 1.8244C12.6456 1.30611 11.7803 0.604645 10.7357 0.229603C10.5584 0.16536 10.3611 0.164492 10.1738 0.131502C5.88316 -0.701056 1.50838 2.50503 1.06168 7.33109Z" fill="#C10000"/>
    </symbol>

    <symbol id="sand-glass-icon" viewBox="0 0 70 91">
        <path d="M48.9934 36.0451C55.0267 30.5444 63.1858 23.1049 63.9295 5.33203H69.3164V0H0V5.33203H5.38695C6.13059 23.1049 14.2897 30.5444 20.323 36.0451C24.3702 39.735 26.6602 41.9935 26.6602 45.5C26.6602 49.0065 24.3702 51.265 20.323 54.9549C14.2897 60.4556 6.13059 67.8951 5.38695 85.668H0V91H69.3164V85.668H63.9295C63.1858 67.8951 55.0267 60.4556 48.9934 54.9549C44.9462 51.265 42.6562 49.0065 42.6562 45.5C42.6562 41.9935 44.9462 39.735 48.9934 36.0451ZM31.9922 65.4841C31.1687 65.654 30.3553 65.9012 29.5613 66.2297L13.2316 72.987C15.8983 66.2064 20.1935 62.2886 23.9154 58.8953C28.0691 55.1083 31.9922 51.5314 31.9922 45.5V65.4841ZM45.401 58.8953C49.1229 62.2886 53.4179 66.2064 56.0848 72.9868L39.7551 66.2295C38.9612 65.9011 38.1477 65.6538 37.3242 65.4839V45.5C37.3242 51.5314 41.2473 55.1083 45.401 58.8953ZM13.1379 17.7734C11.8488 14.4144 10.9586 10.3587 10.7256 5.33203H58.5907C58.3577 10.3587 57.4676 14.4144 56.1783 17.7734H13.1379Z" fill="#910002"/>
    </symbol>
        <symbol id="about-me-decor" viewBox="0 0 774 776">
            <path d="M601.69 540.689L673.927 512.558C679.374 510.437 684.65 507.901 689.709 504.971L733.908 479.376C754.631 467.375 764.175 442.543 756.823 419.752C754.906 413.811 751.912 408.272 747.989 403.415L714.936 362.481L646.348 277.54L644.392 275.119C600.656 220.955 546.494 176.121 485.114 143.271L423.382 110.234C410.395 103.284 396.286 98.6733 381.7 96.6139C357.484 93.1946 332.796 96.9239 310.669 107.343L284.518 119.659C251.906 135.016 223.517 158.073 201.797 186.842L189.358 203.319C172.171 226.084 158.252 251.141 148.005 277.761L143.238 290.145L121.246 336.842C115.714 348.59 111.23 360.804 107.848 373.342L101.51 396.839C97.621 411.255 96.8148 426.329 99.1437 441.078C102.047 459.465 109.731 476.767 121.426 491.25L132.816 505.355C160.279 539.366 199.14 562.267 242.198 569.815L262.164 573.315C283.386 577.035 305.019 577.815 326.454 575.634L356.249 572.601C377.614 570.427 399.107 569.797 420.562 570.716C482.366 573.362 544.046 563.137 601.69 540.689Z" fill="#910002"/>
    </symbol>
    <symbol id="circle-glass" viewBox="0 0 17 17">
        <path d="M8.5 0C3.81291 0 0 3.81291 0 8.5C0 13.1871 3.81291 17 8.5 17C13.1871 17 17 13.1871 17 8.5C17 3.81291 13.1871 0 8.5 0ZM12.5425 12.8966C12.4044 13.0347 12.223 13.1042 12.0417 13.1042C11.8604 13.1042 11.6789 13.0347 11.5409 12.8966L7.99923 9.35498C7.86603 9.22256 7.79171 9.04253 7.79171 8.85421V4.25C7.79171 3.85831 8.10896 3.54171 8.5 3.54171C8.89104 3.54171 9.20829 3.85831 9.20829 4.25V8.56096L12.5425 11.895C12.8194 12.1721 12.8194 12.6197 12.5425 12.8966Z" fill="black"/>
    </symbol>
        <symbol id="form-email-icon" viewBox="0 0 26 26">
            <path d="M23.5625 3.25H2.43752C1.09339 3.25 0 4.34339 0 5.68752V20.3125C0 21.6566 1.09339 22.75 2.43752 22.75H23.5625C24.9066 22.75 26 21.6566 26 20.3125V5.68752C26 4.34339 24.9066 3.25 23.5625 3.25ZM23.5625 4.87499C23.6729 4.87499 23.7779 4.8979 23.8739 4.9379L13 14.3624L2.12604 4.9379C2.22205 4.89795 2.32707 4.87499 2.43746 4.87499H23.5625ZM23.5625 21.125H2.43752C1.98922 21.125 1.62499 20.7608 1.62499 20.3125V6.65472L12.4676 16.0516C12.6207 16.1841 12.8104 16.25 13 16.25C13.1896 16.25 13.3793 16.1842 13.5324 16.0516L24.375 6.65472V20.3125C24.375 20.7608 24.0108 21.125 23.5625 21.125Z" fill="#1C1C1C"/>
    </symbol>
        <symbol id="form-phone-icon" viewBox="0 0 28 27">
        <path d="M22.8675 22.8328L21.232 21.4151C26.5702 16.7879 26.5702 9.25752 21.232 4.63027L22.8665 3.21258C29.1062 8.6229 29.1062 17.4225 22.8675 22.8328ZM20.0411 5.66077L18.4056 7.07672C22.1874 10.3549 22.1874 15.6888 18.4056 18.9669L20.0431 20.3829C24.7224 16.326 24.7224 9.71851 20.0411 5.66077ZM17.1246 8.1897L15.4891 9.60826C17.6624 11.4904 17.6624 14.5576 15.4891 16.4398L17.1246 17.8574C20.1984 15.1913 20.1984 10.8532 17.1246 8.1897ZM1.06168 7.33109C0.889416 9.17592 0.790262 11.0233 0.752203 12.8725H0.742188C0.743189 12.9229 0.747195 12.9715 0.747195 13.0218C0.747195 13.0731 0.743189 13.1217 0.742188 13.1703H0.753205C0.791264 15.0195 0.890417 16.8686 1.06268 18.7126C1.50838 23.5395 5.88416 26.7447 10.1748 25.913C10.3631 25.88 10.5594 25.8783 10.7367 25.8158C11.7813 25.439 12.6467 24.7384 13.6111 24.221C14.8411 23.5525 12.1899 17.8835 10.5474 18.6153C9.94046 18.8897 8.26385 19.9636 7.58981 20.0443C6.98787 20.1172 6.51714 19.4271 6.45705 18.7898C6.29981 17.1074 6.44203 14.9578 6.45405 13.1712H6.45705C6.45705 13.1234 6.45605 13.0722 6.45605 13.0227C6.45605 12.9732 6.45705 12.9211 6.45705 12.8742H6.45305C6.44103 11.0876 6.29881 8.93804 6.45605 7.25556C6.51614 6.61747 6.98687 5.92642 7.58881 6.00108C8.26285 6.08182 9.93945 7.15573 10.5464 7.43006C12.1889 8.16191 14.8391 2.49114 13.6101 1.8244C12.6456 1.30611 11.7803 0.604645 10.7357 0.229603C10.5584 0.16536 10.3611 0.164492 10.1738 0.131502C5.88316 -0.701056 1.50838 2.50503 1.06168 7.33109Z" fill="#1C1C1C"/>
    </symbol>
        


    <symbol id="instagram-icon" viewBox="0 0 35 35">
        <path d="M20.8496 17.5C20.8496 19.35 19.35 20.8496 17.5 20.8496C15.65 20.8496 14.1504 19.35 14.1504 17.5C14.1504 15.65 15.65 14.1504 17.5 14.1504C19.35 14.1504 20.8496 15.65 20.8496 17.5Z" fill="#A8B56B"/>
        <path d="M25.3335 11.5736C25.1725 11.1373 24.9156 10.7424 24.5818 10.4182C24.2577 10.0844 23.863 9.82753 23.4264 9.66651C23.0723 9.52899 22.5404 9.3653 21.5607 9.32071C20.5008 9.27238 20.1831 9.26196 17.5 9.26196C14.8166 9.26196 14.4988 9.27211 13.4393 9.32044C12.4595 9.3653 11.9273 9.52899 11.5735 9.66651C11.1369 9.82753 10.742 10.0844 10.4181 10.4182C10.0843 10.7424 9.82743 11.137 9.66615 11.5736C9.52863 11.9277 9.36494 12.4599 9.32034 13.4396C9.27201 14.4992 9.2616 14.817 9.2616 17.5003C9.2616 20.1834 9.27201 20.5012 9.32034 21.561C9.36494 22.5408 9.52863 23.0727 9.66615 23.4268C9.82743 23.8634 10.084 24.258 10.4178 24.5822C10.742 24.916 11.1367 25.1729 11.5733 25.3339C11.9273 25.4717 12.4595 25.6354 13.4393 25.68C14.4988 25.7283 14.8163 25.7384 17.4997 25.7384C20.1833 25.7384 20.5011 25.7283 21.5604 25.68C22.5401 25.6354 23.0723 25.4717 23.4264 25.3339C24.3028 24.9958 24.9955 24.3032 25.3335 23.4268C25.471 23.0727 25.6347 22.5408 25.6796 21.561C25.7279 20.5012 25.7381 20.1834 25.7381 17.5003C25.7381 14.817 25.7279 14.4992 25.6796 13.4396C25.635 12.4599 25.4713 11.9277 25.3335 11.5736ZM17.5 22.6601C14.65 22.6601 12.3396 20.3501 12.3396 17.5001C12.3396 14.6501 14.65 12.34 17.5 12.34C20.3497 12.34 22.66 14.6501 22.66 17.5001C22.66 20.3501 20.3497 22.6601 17.5 22.6601ZM22.864 13.3419C22.1981 13.3419 21.6581 12.802 21.6581 12.136C21.6581 11.47 22.1981 10.9301 22.864 10.9301C23.53 10.9301 24.0699 11.47 24.0699 12.136C24.0697 12.802 23.53 13.3419 22.864 13.3419Z" fill="#A8B56B"/>
        <path d="M17.5 0C7.83649 0 0 7.83649 0 17.5C0 27.1635 7.83649 35 17.5 35C27.1635 35 35 27.1635 35 17.5C35 7.83649 27.1635 0 17.5 0ZM27.4882 21.643C27.4396 22.7127 27.2695 23.443 27.0212 24.0823C26.4991 25.4321 25.4321 26.4991 24.0823 27.0212C23.4433 27.2695 22.7127 27.4393 21.6432 27.4882C20.5716 27.5371 20.2293 27.5488 17.5003 27.5488C14.771 27.5488 14.4289 27.5371 13.357 27.4882C12.2876 27.4393 11.557 27.2695 10.918 27.0212C10.2472 26.7688 9.64001 26.3734 9.13799 25.862C8.6269 25.3603 8.23143 24.7528 7.97909 24.0823C7.73075 23.4433 7.56065 22.7127 7.51205 21.6432C7.46265 20.5714 7.45117 20.229 7.45117 17.5C7.45117 14.771 7.46265 14.4286 7.51179 13.357C7.56039 12.2873 7.73022 11.557 7.97855 10.9177C8.2309 10.2472 8.62663 9.63974 9.13799 9.13799C9.63974 8.62663 10.2472 8.23116 10.9177 7.97882C11.557 7.73048 12.2873 7.56065 13.357 7.51179C14.4286 7.46292 14.771 7.45117 17.5 7.45117C20.229 7.45117 20.5714 7.46292 21.643 7.51205C22.7127 7.56065 23.443 7.73048 24.0823 7.97855C24.7528 8.2309 25.3603 8.62663 25.8623 9.13799C26.3734 9.64001 26.7691 10.2472 27.0212 10.9177C27.2698 11.557 27.4396 12.2873 27.4885 13.357C27.5373 14.4286 27.5488 14.771 27.5488 17.5C27.5488 20.229 27.5373 20.5714 27.4882 21.643Z" fill="#A8B56B"/>
    </symbol>
    <symbol id="vkontakte-icon" viewBox="0 0 35 35">
            <path d="M17.5 0C7.83535 0 0 7.83499 0 17.5C0 27.165 7.83535 35 17.5 35C27.1647 35 35 27.165 35 17.5C35 7.83499 27.1647 0 17.5 0ZM26.3769 19.3927C27.1926 20.1894 28.0555 20.9391 28.7877 21.8182C29.1121 22.207 29.4179 22.6091 29.6506 23.0613C29.9829 23.7062 29.6829 24.4134 29.1057 24.4517L25.5205 24.4509C24.5945 24.5276 23.8576 24.1541 23.2364 23.5211C22.7405 23.0166 22.2804 22.4777 21.8028 21.956C21.6076 21.7419 21.4021 21.5403 21.1572 21.3817C20.6684 21.0637 20.2438 21.1611 19.9638 21.6717C19.6784 22.1913 19.6132 22.767 19.586 23.3453C19.547 24.1906 19.2921 24.4116 18.4438 24.4513C16.6314 24.5362 14.9116 24.2612 13.3132 23.3474C11.9032 22.5414 10.8119 21.4039 9.86087 20.116C8.009 17.6053 6.59074 14.8497 5.31642 12.0149C5.02962 11.3765 5.23944 11.0349 5.94373 11.0217C7.11386 10.9991 8.28399 11.002 9.45412 11.0206C9.93033 11.0281 10.2454 11.3006 10.4284 11.75C11.0607 13.3057 11.8359 14.7859 12.8073 16.1587C13.0662 16.5243 13.3304 16.8888 13.7068 17.147C14.1221 17.432 14.4386 17.3378 14.6345 16.8741C14.7598 16.5794 14.8139 16.2643 14.8411 15.9485C14.9342 14.8669 14.9453 13.7855 14.7841 12.7081C14.6839 12.0339 14.3047 11.5985 13.6326 11.471C13.2903 11.4062 13.3405 11.2795 13.507 11.084C13.7959 10.746 14.0666 10.5369 14.6076 10.5369L18.6583 10.5362C19.2967 10.6615 19.4399 10.9479 19.5266 11.591L19.5302 16.0925C19.5227 16.3413 19.6551 17.0789 20.102 17.2418C20.4601 17.36 20.6964 17.0728 20.9105 16.8462C21.8819 15.8153 22.574 14.5987 23.1938 13.3394C23.4674 12.784 23.7033 12.2094 23.9325 11.6336C24.1029 11.2079 24.3679 10.9984 24.8484 11.0056L28.7491 11.0102C28.864 11.0102 28.9807 11.0113 29.0946 11.031C29.752 11.1434 29.9321 11.4263 29.7287 12.0676C29.4086 13.0751 28.7866 13.9144 28.1787 14.7559C27.527 15.6567 26.832 16.5261 26.1868 17.4309C25.5939 18.258 25.6408 18.6744 26.3769 19.3927Z" fill="#A8B56B"/>
    </symbol>

    <symbol id="telegram-icon" viewBox="0 0 35 35">
            <path d="M17.5 35C27.1673 35 35 27.1673 35 17.5C35 7.83271 27.1673 0 17.5 0C7.83271 0 0 7.83271 0 17.5C0 27.1673 7.83271 35 17.5 35ZM8.00771 17.1208L24.8806 10.6152C25.6638 10.3323 26.3477 10.8063 26.094 11.9904L26.0954 11.989L23.2225 25.5238C23.0096 26.4833 22.4394 26.7167 21.6417 26.2646L17.2667 23.0402L15.1565 25.0731C14.9231 25.3065 14.7263 25.5033 14.2742 25.5033L14.5848 21.051L22.6931 13.7258C23.046 13.4152 22.6144 13.2402 22.1492 13.5494L12.129 19.8581L7.80938 18.5106C6.87167 18.2131 6.85125 17.5729 8.00771 17.1208Z" fill="#A8B56B"/>
    </symbol>
    <symbol id="large-red-spot" viewBox="0 0 774 776">
            <path d="M601.69 540.689L673.927 512.558C679.374 510.437 684.65 507.901 689.709 504.971L733.908 479.376C754.631 467.375 764.175 442.543 756.823 419.752C754.906 413.811 751.912 408.272 747.989 403.415L714.936 362.481L646.348 277.54L644.392 275.119C600.656 220.955 546.494 176.121 485.114 143.271L423.382 110.234C410.395 103.284 396.286 98.6733 381.7 96.6139C357.484 93.1946 332.796 96.9239 310.669 107.343L284.518 119.659C251.906 135.016 223.517 158.073 201.797 186.842L189.358 203.319C172.171 226.084 158.252 251.141 148.005 277.761L143.238 290.145L121.246 336.842C115.714 348.59 111.23 360.804 107.848 373.342L101.51 396.839C97.621 411.255 96.8148 426.329 99.1437 441.078C102.047 459.465 109.731 476.767 121.426 491.25L132.816 505.355C160.279 539.366 199.14 562.267 242.198 569.815L262.164 573.315C283.386 577.035 305.019 577.815 326.454 575.634L356.249 572.601C377.614 570.427 399.107 569.797 420.562 570.716C482.366 573.362 544.046 563.137 601.69 540.689Z" fill="#910002"/>
    </symbol>
</svg> 