<svg width="774" height="776" viewBox="0 0 774 776" fill="none" xmlns="http://www.w3.org/2000/svg">
<path d="M601.69 540.689L673.927 512.558C679.374 510.437 684.65 507.901 689.709 504.971L733.908 479.376C754.631 467.375 764.175 442.543 756.823 419.752C754.906 413.811 751.912 408.272 747.989 403.415L714.936 362.481L646.348 277.54L644.392 275.119C600.656 220.955 546.494 176.121 485.114 143.271L423.382 110.234C410.395 103.284 396.286 98.6733 381.7 96.6139C357.484 93.1946 332.796 96.9239 310.669 107.343L284.518 119.659C251.906 135.016 223.517 158.073 201.797 186.842L189.358 203.319C172.171 226.084 158.252 251.141 148.005 277.761L143.238 290.145L121.246 336.842C115.714 348.59 111.23 360.804 107.848 373.342L101.51 396.839C97.621 411.255 96.8148 426.329 99.1437 441.078C102.047 459.465 109.731 476.767 121.426 491.25L132.816 505.355C160.279 539.366 199.14 562.267 242.198 569.815L262.164 573.315C283.386 577.035 305.019 577.815 326.454 575.634L356.249 572.601C377.614 570.427 399.107 569.797 420.562 570.716C482.366 573.362 544.046 563.137 601.69 540.689Z" fill="#910002"/>
</svg>
