<svg width="348" height="618" viewBox="0 0 348 618" fill="none" xmlns="http://www.w3.org/2000/svg">
<path d="M602.489 540.689L674.726 512.558C680.173 510.437 685.449 507.901 690.507 504.971L734.706 479.376C755.43 467.375 764.973 442.543 757.622 419.752C755.705 413.811 752.71 408.272 748.788 403.415L715.735 362.481L647.146 277.54L645.191 275.119C601.455 220.955 547.292 176.121 485.912 143.271L424.181 110.234C411.194 103.284 397.085 98.6733 382.499 96.6139C358.282 93.1946 333.594 96.9239 311.468 107.343L285.316 119.659C252.704 135.016 224.315 158.073 202.596 186.842L190.156 203.319C172.969 226.084 159.05 251.141 148.803 277.761L144.037 290.145L122.045 336.842C116.512 348.59 112.029 360.804 108.647 373.342L102.308 396.839C98.4197 411.255 97.6134 426.329 99.9423 441.078C102.846 459.465 110.53 476.767 122.225 491.25L133.614 505.355C161.077 539.366 199.939 562.267 242.997 569.815L262.963 573.315C284.185 577.035 305.818 577.815 327.253 575.634L357.048 572.601C378.412 570.427 399.906 569.797 421.361 570.716C483.165 573.362 544.845 563.137 602.489 540.689Z" fill="#910002"/>
</svg>
